<svg id="Layer_1" data-name="Layer 1" xmlns="http://www.w3.org/2000/svg" xmlns:xlink="http://www.w3.org/1999/xlink" viewBox="0 0 264.33 74"><defs><style>.cls-1{fill:#ffc727;}.cls-2,.cls-6{fill:#93193d;}.cls-3{fill:#ee3e30;}.cls-4{fill:#f5891f;}.cls-5{fill:url(#Orange_Yellow_2);}.cls-6{stroke:#93193d;stroke-miterlimit:10;}</style><linearGradient id="Orange_Yellow_2" x1="20.62" y1="37.57" x2="43.23" y2="37.57" gradientUnits="userSpaceOnUse"><stop offset="0" stop-color="#fbee43"/><stop offset="0.04" stop-color="#fbe234"/><stop offset="0.12" stop-color="#fcd221"/><stop offset="0.2" stop-color="#fcc916"/><stop offset="0.28" stop-color="#fcc612"/><stop offset="0.67" stop-color="#f18f40"/><stop offset="0.89" stop-color="#ec683b"/><stop offset="1" stop-color="#e83e39"/></linearGradient></defs><title>noticias de angola logo</title><g id="_Group_" data-name="&lt;Group&gt;"><g id="_Group_2" data-name="&lt;Group&gt;"><g id="_Group_3" data-name="&lt;Group&gt;"><path id="_Path_" data-name="&lt;Path&gt;" class="cls-1" d="M16,57.9H4.07A11.78,11.78,0,0,0,16,69.5H63.78L53.67,57.9Z"/><g id="_Group_4" data-name="&lt;Group&gt;"><path id="_Path_2" data-name="&lt;Path&gt;" class="cls-2" d="M63.78,17.12V69.51h0c5.59,0,10.12-6.4,10.12-14.29V17.12Z"/></g><g id="_Group_5" data-name="&lt;Group&gt;"><path id="_Path_3" data-name="&lt;Path&gt;" class="cls-3" d="M62,5.75H14.2v11.6H73.9A11.78,11.78,0,0,0,62,5.75Z"/></g></g><path id="_Path_4" data-name="&lt;Path&gt;" class="cls-4" d="M4.07,57.9H14.2V5.75h0C8.61,5.75,4.07,12.12,4.07,20Z"/></g></g><polygon class="cls-5" points="27.95 49.28 27.68 36.57 36.01 49.28 43.19 49.28 43.23 25.85 35.86 25.85 36.12 38.65 27.78 25.85 20.62 25.85 20.62 49.28 27.95 49.28"/><path class="cls-2" d="M36,49.28l8.4-23.43h7.81l8.4,23.43H53l-.91-3.09H44.41l-.88,3.09ZM48.25,32.91l-2.38,8.4h4.85Z"/><path class="cls-1" d="M83,38.81V13H90.5L99,26.82V13h7.76V38.81H99.06L90.74,25.32V38.81Z"/><path class="cls-1" d="M122.19,39.49a12.44,12.44,0,0,1-9.47-3.73q-3.54-3.73-3.54-9.9a16.07,16.07,0,0,1,.82-5.3,12.06,12.06,0,0,1,2.2-4,11.35,11.35,0,0,1,2.89-2.47,13.49,13.49,0,0,1,3.26-1.33,14.21,14.21,0,0,1,3.69-.47,14.35,14.35,0,0,1,6.73,1.6,10.93,10.93,0,0,1,4.7,4.65,14.7,14.7,0,0,1,1.63,7,16.38,16.38,0,0,1-1.43,7,11.89,11.89,0,0,1-4.35,5A12.68,12.68,0,0,1,122.19,39.49Zm-.1-6.37a4.58,4.58,0,0,0,2.52-.73A4.94,4.94,0,0,0,126.43,30a10.94,10.94,0,0,0,.68-4.1,13.15,13.15,0,0,0-.33-3.1,6.86,6.86,0,0,0-.89-2.2,4.71,4.71,0,0,0-1.51-1.41,4.06,4.06,0,0,0-2.14-.57,4.43,4.43,0,0,0-2.5.78,5.24,5.24,0,0,0-1.86,2.43,10.55,10.55,0,0,0-.69,4.07,9.07,9.07,0,0,0,1.58,5.68A4,4,0,0,0,122.09,33.12Z"/><path class="cls-1" d="M136.22,13H158.9v6.8h-7.3v19h-8.07v-19h-7.3Z"/><path class="cls-1" d="M161.17,38.81V13h8.1V38.81Zm11-33.06-6,5.39h-4.77l3.47-5.39Z"/><path class="cls-1" d="M196,22.87h-7.66a4.72,4.72,0,0,0-1.32-3,3.92,3.92,0,0,0-2.83-1.08,4.23,4.23,0,0,0-3.5,1.74q-1.35,1.74-1.35,5.66a11.21,11.21,0,0,0,.58,4.09,4.45,4.45,0,0,0,1.61,2.09A4.53,4.53,0,0,0,184,33,4.09,4.09,0,0,0,187,32a5,5,0,0,0,1.31-3.19h7.8a15.08,15.08,0,0,1-.92,4A10.63,10.63,0,0,1,193,36.09a10.79,10.79,0,0,1-3.71,2.54,12.86,12.86,0,0,1-5,.9,15,15,0,0,1-5.22-.88,11.1,11.1,0,0,1-4-2.48,11.83,11.83,0,0,1-2.55-3.68A15.63,15.63,0,0,1,171.23,26a16.41,16.41,0,0,1,.94-5.61,12.59,12.59,0,0,1,2.57-4.36,11.14,11.14,0,0,1,3.63-2.65A13.75,13.75,0,0,1,184,12.3a14.87,14.87,0,0,1,5,.84,9.64,9.64,0,0,1,3.87,2.45,11.16,11.16,0,0,1,2.32,3.71A13.64,13.64,0,0,1,196,22.87Z"/><path class="cls-1" d="M198.36,38.81V13h8.1V38.81Z"/><path class="cls-1" d="M207.8,38.81,216.64,13h8.24l8.84,25.82h-8.07l-.94-3.38h-8.07l-.92,3.38Zm12.87-18.06-2.54,9.38h5.16Z"/><path class="cls-1" d="M255.9,20.46h-7.7a2.83,2.83,0,0,0-1-1.68,3.61,3.61,0,0,0-2.17-.56,3.31,3.31,0,0,0-2.11.59,1.42,1.42,0,0,0-.54,1.16,1.26,1.26,0,0,0,.41,1A7.26,7.26,0,0,0,245.49,22l3.15.8q4.38,1.1,6.14,3.13a7,7,0,0,1,1.76,4.7,8.3,8.3,0,0,1-.91,3.89,8.12,8.12,0,0,1-2.24,2.77A10.18,10.18,0,0,1,250,38.93a16.91,16.91,0,0,1-9.25-.1,9.83,9.83,0,0,1-3.7-2,8.66,8.66,0,0,1-2.2-3,10.52,10.52,0,0,1-.73-3h7.78A3.05,3.05,0,0,0,243,32.72a4.72,4.72,0,0,0,2.78.66,3.8,3.8,0,0,0,2.35-.57,1.45,1.45,0,0,0,.53-1.19,1.7,1.7,0,0,0-.49-1.26,7,7,0,0,0-2.66-1l-2.83-.73a19.85,19.85,0,0,1-4.15-1.53,7.21,7.21,0,0,1-2.93-2.53,6.84,6.84,0,0,1-1-3.75,8.2,8.2,0,0,1,.89-3.86,7.46,7.46,0,0,1,2.38-2.72,9.61,9.61,0,0,1,3.32-1.46,16.54,16.54,0,0,1,3.77-.43,17.2,17.2,0,0,1,4.24.49,9.5,9.5,0,0,1,3.06,1.28,7.33,7.33,0,0,1,1.86,1.81A9.51,9.51,0,0,1,255.26,18,13.27,13.27,0,0,1,255.9,20.46Z"/><path class="cls-6" d="M82.23,66.42V45.14h9.28a13,13,0,0,1,5.41,1,7.59,7.59,0,0,1,3.57,3.48,12.55,12.55,0,0,1,1.31,6,14.18,14.18,0,0,1-.59,4.25A11,11,0,0,1,99.76,63a7.73,7.73,0,0,1-1.86,1.9A8.4,8.4,0,0,1,95.29,66a15.42,15.42,0,0,1-4,.43Zm6.53-5.28h1.68a5.66,5.66,0,0,0,2.81-.56,3.57,3.57,0,0,0,1.46-1.82,8.38,8.38,0,0,0,.51-3.14A9.57,9.57,0,0,0,95,53.44a4.92,4.92,0,0,0-.68-1.67,2.55,2.55,0,0,0-1.07-.92,6.86,6.86,0,0,0-2.74-.41H88.76Z"/><path class="cls-6" d="M103.47,66.42V45.14H120v5h-10.1v3h8.57V58h-8.57v3.34h10.51v5.1Z"/><path class="cls-6" d="M129,66.42l7.28-21.28h6.79l7.28,21.28h-6.65L143,63.63h-6.65l-.76,2.79Zm10.61-14.89-2.09,7.73h4.25Z"/><path class="cls-6" d="M151.8,66.42V45.14H158l7,11.39V45.14h6.4V66.42h-6.36L158.21,55.3V66.42Z"/><path class="cls-6" d="M193.77,52.44h-6.31a3.64,3.64,0,0,0-1.23-1.94,3.31,3.31,0,0,0-2.09-.67,3.5,3.5,0,0,0-2.86,1.45,7.48,7.48,0,0,0-1.14,4.62,7.13,7.13,0,0,0,1.14,4.49,3.62,3.62,0,0,0,2.95,1.4,3.83,3.83,0,0,0,2.42-.78,2.92,2.92,0,0,0,1.19-1.73h-2.93V54.7H194V66.42h-4.32l-.27-2.08a8.49,8.49,0,0,1-1.4,1.39,6.32,6.32,0,0,1-1.91.91,9.13,9.13,0,0,1-2.67.35,10.47,10.47,0,0,1-5.06-1.21A8.75,8.75,0,0,1,174.82,62a12.82,12.82,0,0,1-1.35-6,14.33,14.33,0,0,1,.83-4.94,9.74,9.74,0,0,1,2.08-3.34,9.36,9.36,0,0,1,3.13-2.22,12.07,12.07,0,0,1,4.73-.91,10.22,10.22,0,0,1,5,1.19A8.5,8.5,0,0,1,192.59,49,10,10,0,0,1,193.77,52.44Z"/><path class="cls-6" d="M206.66,67a10.26,10.26,0,0,1-7.8-3.07,11.36,11.36,0,0,1-2.92-8.16,13.25,13.25,0,0,1,.67-4.37,9.94,9.94,0,0,1,1.82-3.26,9.35,9.35,0,0,1,2.38-2A11.12,11.12,0,0,1,203.5,45a12.24,12.24,0,0,1,8.59.93A9,9,0,0,1,216,49.73a12.12,12.12,0,0,1,1.34,5.79,13.5,13.5,0,0,1-1.18,5.74,9.8,9.8,0,0,1-3.59,4.13A10.45,10.45,0,0,1,206.66,67Zm-.08-5.25a3.77,3.77,0,0,0,2.08-.6,4.07,4.07,0,0,0,1.5-2,9,9,0,0,0,.56-3.38,10.84,10.84,0,0,0-.27-2.56,5.66,5.66,0,0,0-.74-1.81,3.88,3.88,0,0,0-1.24-1.16,3.35,3.35,0,0,0-1.76-.47,3.66,3.66,0,0,0-2.06.65,4.32,4.32,0,0,0-1.54,2,8.69,8.69,0,0,0-.57,3.35,7.48,7.48,0,0,0,1.31,4.68A3.32,3.32,0,0,0,206.58,61.72Z"/><path class="cls-6" d="M219.41,66.42V45.14h6.65V60.86h9.18v5.56Z"/><path class="cls-6" d="M235.23,66.42l7.28-21.28h6.79l7.28,21.28h-6.65l-.77-2.79h-6.65l-.76,2.79Zm10.61-14.89-2.09,7.73H248Z"/></svg>